<svg id="visual" viewBox="0 0 540 960" width="540" height="960" xmlns="http://www.w3.org/2000/svg" xmlns:xlink="http://www.w3.org/1999/xlink" version="1.1"><rect x="0" y="0" width="540" height="960" fill="#ffffff"></rect><defs><linearGradient id="grad1_0" x1="0%" y1="100%" x2="100%" y2="0%"><stop offset="30%" stop-color="#ffffff" stop-opacity="1"></stop><stop offset="70%" stop-color="#ffffff" stop-opacity="1"></stop></linearGradient></defs><defs><linearGradient id="grad2_0" x1="0%" y1="100%" x2="100%" y2="0%"><stop offset="30%" stop-color="#ffffff" stop-opacity="1"></stop><stop offset="70%" stop-color="#ffffff" stop-opacity="1"></stop></linearGradient></defs><g transform="translate(540, 960)"><path d="M-324 0C-321.4 -43.6 -318.9 -87.1 -299.3 -124C-279.8 -160.8 -243.4 -190.9 -207.2 -207.2C-171 -223.4 -135.1 -225.8 -100.6 -243C-66.2 -260.1 -33.1 -292.1 0 -324L0 0Z" fill="#533cfa"></path></g><g transform="translate(0, 0)"><path d="M324 0C303.7 36.9 283.4 73.8 267.9 111C252.4 148.2 241.7 185.6 219.2 219.2C196.7 252.8 162.5 282.5 124 299.3C85.5 316.2 42.7 320.1 0 324L0 0Z" fill="#533cfa"></path></g></svg>